<?xml version="1.0" encoding="UTF-8" standalone="no"?>
<!-- Created with Inkscape (http://www.inkscape.org/) -->
<svg
   xmlns:dc="http://purl.org/dc/elements/1.1/"
   xmlns:cc="http://creativecommons.org/ns#"
   xmlns:rdf="http://www.w3.org/1999/02/22-rdf-syntax-ns#"
   xmlns:svg="http://www.w3.org/2000/svg"
   xmlns="http://www.w3.org/2000/svg"
   xmlns:sodipodi="http://sodipodi.sourceforge.net/DTD/sodipodi-0.dtd"
   xmlns:inkscape="http://www.inkscape.org/namespaces/inkscape"
   width="655.87"
   height="213.87"
   id="svg2"
   sodipodi:version="0.32"
   inkscape:version="0.46"
   version="1.0"
   sodipodi:docname="zshg-groesse-step.svg"
   inkscape:output_extension="org.inkscape.output.svg.inkscape">
  <defs
     id="defs4">
    <marker
       inkscape:stockid="Arrow1Lend"
       orient="auto"
       refY="0"
       refX="0"
       id="Arrow1Lend"
       style="overflow:visible">
      <path
         id="path3233"
         d="M 0,0 L 5,-5 L -12.5,0 L 5,5 L 0,0 z"
         style="fill-rule:evenodd;stroke:#000000;stroke-width:1pt;marker-start:none"
         transform="matrix(-0.8,0,0,-0.8,-10,0)" />
    </marker>
    <marker
       inkscape:stockid="Arrow1Mend"
       orient="auto"
       refY="0"
       refX="0"
       id="Arrow1Mend"
       style="overflow:visible">
      <path
         id="path3239"
         d="M 0,0 L 5,-5 L -12.5,0 L 5,5 L 0,0 z"
         style="fill-rule:evenodd;stroke:#000000;stroke-width:1pt;marker-start:none"
         transform="matrix(-0.4,0,0,-0.4,-4,0)" />
    </marker>
    <inkscape:path-effect
       effect="skeletal"
       id="path-effect3171"
       prop_scale="1"
       vertical_pattern="false"
       scale_y_rel="false" />
    <inkscape:perspective
       sodipodi:type="inkscape:persp3d"
       inkscape:vp_x="0 : 526.18109 : 1"
       inkscape:vp_y="0 : 1000 : 0"
       inkscape:vp_z="744.09448 : 526.18109 : 1"
       inkscape:persp3d-origin="372.04724 : 350.78739 : 1"
       id="perspective10" />
  </defs>
  <sodipodi:namedview
     id="base"
     pagecolor="#ffffff"
     bordercolor="#666666"
     borderopacity="1.0"
     gridtolerance="10000"
     guidetolerance="10"
     objecttolerance="10"
     inkscape:pageopacity="0.0"
     inkscape:pageshadow="2"
     inkscape:zoom="2.01602"
     inkscape:cx="334.95377"
     inkscape:cy="126.87558"
     inkscape:document-units="px"
     inkscape:current-layer="layer1"
     showgrid="false"
     inkscape:window-width="1920"
     inkscape:window-height="1135"
     inkscape:window-x="0"
     inkscape:window-y="0" />
  <metadata
     id="metadata7">
    <rdf:RDF>
      <cc:Work
         rdf:about="">
        <dc:format>image/svg+xml</dc:format>
        <dc:type
           rdf:resource="http://purl.org/dc/dcmitype/StillImage" />
      </cc:Work>
    </rdf:RDF>
  </metadata>
  <g
     inkscape:label="Layer 1"
     inkscape:groupmode="layer"
     id="layer1"
     transform="translate(-57.131575,7.5471459)">
    <path
       style="fill:none;fill-rule:evenodd;stroke:#000000;stroke-width:1;stroke-linecap:butt;stroke-linejoin:miter;stroke-opacity:1"
       d="M 381.38716,-5.0478563 L 381.38716,203.82356"
       id="path4554"
       sodipodi:nodetypes="cc" />
    <rect
       transform="matrix(0.9659258,-0.258819,0.258819,0.9659258,0,0)"
       y="172.31171"
       x="594.89453"
       height="156.57539"
       width="11.448256"
       id="rect2505"
       style="fill:#b3b3b3;fill-opacity:1;stroke:#ff0000;stroke-width:0.99999994;stroke-linecap:round;stroke-linejoin:miter;stroke-miterlimit:4;stroke-dasharray:none;stroke-dashoffset:0;stroke-opacity:1" />
    <path
       sodipodi:type="arc"
       style="fill:#cccccc;fill-opacity:1;stroke:none;stroke-width:4;stroke-linecap:round;stroke-linejoin:miter;stroke-miterlimit:4;stroke-dasharray:none;stroke-dashoffset:0;stroke-opacity:1"
       id="path2507"
       sodipodi:cx="80.812202"
       sodipodi:cy="103.32387"
       sodipodi:rx="19.192898"
       sodipodi:ry="19.192898"
       d="M 100.0051,103.32387 A 19.192898,19.192898 0 1 1 61.619305,103.32387 A 19.192898,19.192898 0 1 1 100.0051,103.32387 z"
       transform="matrix(0.25,0,0,0.25,525.54628,78.138866)" />
    <path
       transform="matrix(0.25,0,0,0.25,565.28368,78.138866)"
       d="M 100.0051,103.32387 A 19.192898,19.192898 0 1 1 61.619305,103.32387 A 19.192898,19.192898 0 1 1 100.0051,103.32387 z"
       sodipodi:ry="19.192898"
       sodipodi:rx="19.192898"
       sodipodi:cy="103.32387"
       sodipodi:cx="80.812202"
       id="path2509"
       style="fill:#b3b3b3;fill-opacity:1;stroke:none;stroke-width:4;stroke-linecap:round;stroke-linejoin:miter;stroke-miterlimit:4;stroke-dasharray:none;stroke-dashoffset:0;stroke-opacity:1"
       sodipodi:type="arc" />
    <path
       transform="matrix(0.25,0,0,0.25,605.02107,78.138864)"
       d="M 100.0051,103.32387 A 19.192898,19.192898 0 1 1 61.619305,103.32387 A 19.192898,19.192898 0 1 1 100.0051,103.32387 z"
       sodipodi:ry="19.192898"
       sodipodi:rx="19.192898"
       sodipodi:cy="103.32387"
       sodipodi:cx="80.812202"
       id="path2511"
       style="fill:#999999;fill-opacity:1;stroke:none;stroke-width:1;stroke-linecap:round;stroke-linejoin:miter;stroke-miterlimit:4;stroke-dasharray:none;stroke-dashoffset:0;stroke-opacity:1"
       sodipodi:type="arc" />
    <path
       sodipodi:type="arc"
       style="fill:#cccccc;fill-opacity:1;stroke:none;stroke-width:4;stroke-linecap:round;stroke-linejoin:miter;stroke-miterlimit:4;stroke-dasharray:none;stroke-dashoffset:0;stroke-opacity:1"
       id="path2517"
       sodipodi:cx="80.812202"
       sodipodi:cy="103.32387"
       sodipodi:rx="19.192898"
       sodipodi:ry="19.192898"
       d="M 100.0051,103.32387 A 19.192898,19.192898 0 1 1 61.619305,103.32387 A 19.192898,19.192898 0 1 1 100.0051,103.32387 z"
       transform="matrix(0.25,0,0,0.25,485.80889,78.138866)" />
    <path
       transform="matrix(0.25,0,0,0.25,446.0715,78.138866)"
       d="M 100.0051,103.32387 A 19.192898,19.192898 0 1 1 61.619305,103.32387 A 19.192898,19.192898 0 1 1 100.0051,103.32387 z"
       sodipodi:ry="19.192898"
       sodipodi:rx="19.192898"
       sodipodi:cy="103.32387"
       sodipodi:cx="80.812202"
       id="path2519"
       style="fill:#cccccc;fill-opacity:1;stroke:none;stroke-width:4;stroke-linecap:round;stroke-linejoin:miter;stroke-miterlimit:4;stroke-dasharray:none;stroke-dashoffset:0;stroke-opacity:1"
       sodipodi:type="arc" />
    <path
       sodipodi:type="arc"
       style="fill:#cccccc;fill-opacity:1;stroke:none;stroke-width:4;stroke-linecap:round;stroke-linejoin:miter;stroke-miterlimit:4;stroke-dasharray:none;stroke-dashoffset:0;stroke-opacity:1"
       id="path2521"
       sodipodi:cx="80.812202"
       sodipodi:cy="103.32387"
       sodipodi:rx="19.192898"
       sodipodi:ry="19.192898"
       d="M 100.0051,103.32387 A 19.192898,19.192898 0 1 1 61.619305,103.32387 A 19.192898,19.192898 0 1 1 100.0051,103.32387 z"
       transform="matrix(0.25,0,0,0.25,406.33412,78.138866)" />
    <path
       id="path2525"
       d="M 432.24477,103.96983 L 460.08174,103.96983"
       style="fill:none;fill-rule:evenodd;stroke:#000000;stroke-width:0.54641587;stroke-linecap:butt;stroke-linejoin:miter;marker-end:url(#Arrow1Lend);stroke-opacity:1" />
    <path
       sodipodi:type="arc"
       style="fill:#999999;fill-opacity:1;stroke:#ff0000;stroke-width:1;stroke-linecap:round;stroke-linejoin:miter;stroke-miterlimit:4;stroke-dasharray:none;stroke-dashoffset:0;stroke-opacity:1"
       id="path2543"
       sodipodi:cx="80.812202"
       sodipodi:cy="103.32387"
       sodipodi:rx="19.192898"
       sodipodi:ry="19.192898"
       d="M 100.0051,103.32387 A 19.192898,19.192898 0 1 1 61.619305,103.32387 A 19.192898,19.192898 0 1 1 100.0051,103.32387 z"
       transform="matrix(0.25,0,0,0.25,645.19924,78.138864)" />
    <path
       transform="matrix(0.25,0,0,0.25,685.37741,78.138864)"
       d="M 100.0051,103.32387 A 19.192898,19.192898 0 1 1 61.619305,103.32387 A 19.192898,19.192898 0 1 1 100.0051,103.32387 z"
       sodipodi:ry="19.192898"
       sodipodi:rx="19.192898"
       sodipodi:cy="103.32387"
       sodipodi:cx="80.812202"
       id="path2547"
       style="fill:#999999;fill-opacity:1;stroke:#ff0000;stroke-width:1;stroke-linecap:round;stroke-linejoin:miter;stroke-miterlimit:4;stroke-dasharray:none;stroke-dashoffset:0;stroke-opacity:1"
       sodipodi:type="arc" />
    <rect
       style="fill:#b3b3b3;fill-opacity:1;stroke:#ff0000;stroke-width:0.99999988;stroke-linecap:round;stroke-linejoin:miter;stroke-miterlimit:4;stroke-dasharray:none;stroke-dashoffset:0;stroke-opacity:1"
       id="rect2551"
       width="11.448256"
       height="156.57539"
       x="259.0278"
       y="82.31649"
       transform="matrix(0.9659258,-0.258819,0.258819,0.9659258,0,0)" />
    <path
       transform="translate(117.22232,0.6459648)"
       d="M 100.0051,103.32387 A 19.192898,19.192898 0 1 1 61.619305,103.32387 A 19.192898,19.192898 0 1 1 100.0051,103.32387 z"
       sodipodi:ry="19.192898"
       sodipodi:rx="19.192898"
       sodipodi:cy="103.32387"
       sodipodi:cx="80.812202"
       id="path2553"
       style="fill:#cccccc;fill-opacity:1;stroke:none;stroke-width:4;stroke-linecap:round;stroke-linejoin:miter;stroke-miterlimit:4;stroke-dasharray:none;stroke-dashoffset:0;stroke-opacity:1"
       sodipodi:type="arc" />
    <path
       sodipodi:type="arc"
       style="fill:#b3b3b3;fill-opacity:1;stroke:none;stroke-width:4;stroke-linecap:round;stroke-linejoin:miter;stroke-miterlimit:4;stroke-dasharray:none;stroke-dashoffset:0;stroke-opacity:1"
       id="path2555"
       sodipodi:cx="80.812202"
       sodipodi:cy="103.32387"
       sodipodi:rx="19.192898"
       sodipodi:ry="19.192898"
       d="M 100.0051,103.32387 A 19.192898,19.192898 0 1 1 61.619305,103.32387 A 19.192898,19.192898 0 1 1 100.0051,103.32387 z"
       transform="translate(156.95972,0.6459648)" />
    <path
       transform="translate(77.484926,0.6459648)"
       d="M 100.0051,103.32387 A 19.192898,19.192898 0 1 1 61.619305,103.32387 A 19.192898,19.192898 0 1 1 100.0051,103.32387 z"
       sodipodi:ry="19.192898"
       sodipodi:rx="19.192898"
       sodipodi:cy="103.32387"
       sodipodi:cx="80.812202"
       id="path2559"
       style="fill:#cccccc;fill-opacity:1;stroke:none;stroke-width:4;stroke-linecap:round;stroke-linejoin:miter;stroke-miterlimit:4;stroke-dasharray:none;stroke-dashoffset:0;stroke-opacity:1"
       sodipodi:type="arc" />
    <path
       sodipodi:type="arc"
       style="fill:#cccccc;fill-opacity:1;stroke:none;stroke-width:4;stroke-linecap:round;stroke-linejoin:miter;stroke-miterlimit:4;stroke-dasharray:none;stroke-dashoffset:0;stroke-opacity:1"
       id="path2561"
       sodipodi:cx="80.812202"
       sodipodi:cy="103.32387"
       sodipodi:rx="19.192898"
       sodipodi:ry="19.192898"
       d="M 100.0051,103.32387 A 19.192898,19.192898 0 1 1 61.619305,103.32387 A 19.192898,19.192898 0 1 1 100.0051,103.32387 z"
       transform="translate(37.747538,0.6459648)" />
    <path
       transform="translate(-1.9898422,0.6459648)"
       d="M 100.0051,103.32387 A 19.192898,19.192898 0 1 1 61.619305,103.32387 A 19.192898,19.192898 0 1 1 100.0051,103.32387 z"
       sodipodi:ry="19.192898"
       sodipodi:rx="19.192898"
       sodipodi:cy="103.32387"
       sodipodi:cx="80.812202"
       id="path2563"
       style="fill:#cccccc;fill-opacity:1;stroke:none;stroke-width:4;stroke-linecap:round;stroke-linejoin:miter;stroke-miterlimit:4;stroke-dasharray:none;stroke-dashoffset:0;stroke-opacity:1"
       sodipodi:type="arc" />
    <path
       id="path2567"
       d="M 124.60751,103.96983 L 175.55216,103.96983"
       style="fill:none;fill-rule:evenodd;stroke:#000000;stroke-width:1;stroke-linecap:butt;stroke-linejoin:miter;marker-end:url(#Arrow1Lend);stroke-opacity:1" />
    <g
       id="g3365"
       transform="matrix(0.9659258,-0.258819,0.258819,0.9659258,3.8335987,-18.25004)">
      <path
         transform="translate(151.2929,85.45137)"
         d="M 100.0051,103.32387 A 19.192898,19.192898 0 1 1 61.619305,103.32387 A 19.192898,19.192898 0 1 1 100.0051,103.32387 z"
         sodipodi:ry="19.192898"
         sodipodi:rx="19.192898"
         sodipodi:cy="103.32387"
         sodipodi:cx="80.812202"
         id="path2557"
         style="fill:#999999;fill-opacity:1;stroke:#00ff00;stroke-width:1;stroke-linecap:round;stroke-linejoin:miter;stroke-miterlimit:4;stroke-dasharray:none;stroke-dashoffset:0;stroke-opacity:1"
         sodipodi:type="arc" />
      <path
         sodipodi:type="arc"
         style="fill:#7e7e7e;fill-opacity:1;stroke:#00ff00;stroke-width:1;stroke-linecap:round;stroke-linejoin:miter;stroke-miterlimit:4;stroke-dasharray:none;stroke-dashoffset:0;stroke-opacity:1"
         id="path2577"
         sodipodi:cx="80.812202"
         sodipodi:cy="103.32387"
         sodipodi:rx="19.192898"
         sodipodi:ry="19.192898"
         d="M 100.0051,103.32387 A 19.192898,19.192898 0 1 1 61.619305,103.32387 A 19.192898,19.192898 0 1 1 100.0051,103.32387 z"
         transform="translate(111.23874,85.45137)" />
      <path
         transform="translate(71.184572,85.45137)"
         d="M 100.0051,103.32387 A 19.192898,19.192898 0 1 1 61.619305,103.32387 A 19.192898,19.192898 0 1 1 100.0051,103.32387 z"
         sodipodi:ry="19.192898"
         sodipodi:rx="19.192898"
         sodipodi:cy="103.32387"
         sodipodi:cx="80.812202"
         id="path2579"
         style="fill:#6a6a6a;fill-opacity:1;stroke:#00ff00;stroke-width:1;stroke-linecap:round;stroke-linejoin:miter;stroke-miterlimit:4;stroke-dasharray:none;stroke-dashoffset:0;stroke-opacity:1"
         sodipodi:type="arc" />
      <path
         style="fill:none;fill-rule:evenodd;stroke:#000000;stroke-width:1;stroke-linecap:butt;stroke-linejoin:miter;marker-end:url(#Arrow1Lend);stroke-opacity:1"
         d="M 195.80163,188.77525 L 144.85698,188.77524"
         id="path3363" />
    </g>
    <path
       style="fill:none;fill-rule:evenodd;stroke:#000000;stroke-width:0.54641587;stroke-linecap:butt;stroke-linejoin:miter;marker-end:url(#Arrow1Lend);stroke-opacity:1"
       d="M 472.13359,103.96983 L 499.97056,103.96983"
       id="path3509" />
    <path
       id="path3511"
       d="M 512.02243,103.96983 L 539.8594,103.96983"
       style="fill:none;fill-rule:evenodd;stroke:#000000;stroke-width:0.54641587;stroke-linecap:butt;stroke-linejoin:miter;marker-end:url(#Arrow1Lend);stroke-opacity:1" />
    <path
       style="fill:none;fill-rule:evenodd;stroke:#000000;stroke-width:0.54641587;stroke-linecap:butt;stroke-linejoin:miter;marker-end:url(#Arrow1Lend);stroke-opacity:1"
       d="M 551.91124,103.96983 L 579.74821,103.96983"
       id="path3513" />
    <path
       id="path3515"
       d="M 591.80008,103.96983 L 619.63705,103.96983"
       style="fill:none;fill-rule:evenodd;stroke:#000000;stroke-width:0.54641587;stroke-linecap:butt;stroke-linejoin:miter;marker-end:url(#Arrow1Lend);stroke-opacity:1" />
    <path
       style="fill:none;fill-rule:evenodd;stroke:#000000;stroke-width:0.54641587;stroke-linecap:butt;stroke-linejoin:miter;marker-end:url(#Arrow1Lend);stroke-opacity:1"
       d="M 631.68889,103.96983 L 659.52586,103.96983"
       id="path3517" />
    <path
       id="path3519"
       d="M 671.57772,103.96983 L 699.41469,103.96983"
       style="fill:none;fill-rule:evenodd;stroke:#000000;stroke-width:0.54641587;stroke-linecap:butt;stroke-linejoin:miter;marker-end:url(#Arrow1Lend);stroke-opacity:1" />
  </g>
</svg>
